<?xml version="1.0" encoding="utf-8"?>
<!-- Generator: Adobe Illustrator 19.0.0, SVG Export Plug-In . SVG Version: 6.00 Build 0)  -->
<svg version="1.1" id="Layer_1" xmlns="http://www.w3.org/2000/svg" xmlns:xlink="http://www.w3.org/1999/xlink" x="0px" y="0px"
	 viewBox="0 0 512 512" style="fill:#2a2a2a;enable-background:new 0 0 512 512;" xml:space="preserve">
<g id="XMLID_1_">
	<g>
		<path id="XMLID_5_" d="M359.9,167.3L319,208.5c20.5,28.8,20.5,66,0,94.8l40.9,41.2C409.2,295.2,409.2,220.9,359.9,167.3z"/>
		<path id="XMLID_4_" d="M440.6,85.4l-39.7,39.7c67.5,73.6,67.5,184.3,0,261.8l39.7,39.7C535.7,331.8,535.9,184.1,440.6,85.4z"/>
	</g>
	<path d="M173.3,256l84-48.5l61.8-35.7c-29.3-51.6-84.8-86.5-148.4-86.5C76.4,85.4,0,161.8,0,256c0,94.2,76.4,170.6,170.6,170.6
		c63.6,0,119.1-34.9,148.4-86.5l-61.8-35.7L173.3,256z M159.5,170.7c0-15.7,12.7-28.4,28.4-28.4s28.4,12.7,28.4,28.4
		s-12.7,28.4-28.4,28.4S159.5,186.4,159.5,170.7z"/>
</g>
</svg>
